<?xml version="1.0" encoding="UTF-8" standalone="no"?>
<svg
   id="svg8"
   version="1.1"
   viewBox="0 0 66.145828 67.656342"
   height="255.709"
   width="250"
   xmlns="http://www.w3.org/2000/svg"
   xmlns:svg="http://www.w3.org/2000/svg"
   xmlns:rdf="http://www.w3.org/1999/02/22-rdf-syntax-ns#"
   xmlns:cc="http://creativecommons.org/ns#"
   xmlns:dc="http://purl.org/dc/elements/1.1/">
  <defs
     id="defs2" />
  <metadata
     id="metadata5">
    <rdf:RDF>
      <cc:Work
         rdf:about="">
        <dc:format>image/svg+xml</dc:format>
        <dc:type
           rdf:resource="http://purl.org/dc/dcmitype/StillImage" />
      </cc:Work>
    </rdf:RDF>
  </metadata>
  <g
     id="g355"
     transform="matrix(0.87789068,0,0,0.87789068,-113.6053,-27.379497)">
    <path
       id="path1125"
       style="fill:#ededed;fill-opacity:1;stroke-width:0.163409"
       d="m 204.75344,71.27096 a 30.78095,27.68516 0 0 0 -12.31632,-22.12766 30.78095,27.68516 0 0 0 -28.8029,-17.955479 30.78095,27.68516 0 0 0 -30.78103,27.685228 30.78095,27.68516 0 0 0 1.09742,7.253204 30.78095,27.68516 0 0 0 -4.54349,14.443138 30.78095,27.68516 0 0 0 30.78103,27.685239 30.78095,27.68516 0 0 0 24.62287,-11.071862 30.78095,27.68516 0 0 0 19.94242,-25.911808 z" />
    <path
       id="path355"
       style="fill:#e3e3e3;fill-opacity:1;stroke-width:0.142961"
       d="m 169.03366,39.878609 a 25.053632,26.034072 0 0 0 -20.02438,10.416957 25.053632,26.034072 0 0 0 -16.24878,24.361071 25.053632,26.034072 0 0 0 25.0537,26.034133 25.053632,26.034072 0 0 0 6.56377,-0.928181 25.053632,26.034072 0 0 0 13.07029,3.842821 25.053632,26.034072 0 0 0 25.0537,-26.034144 25.053632,26.034072 0 0 0 -10.01946,-20.825657 25.053632,26.034072 0 0 0 -23.44884,-16.867 z" />
    <rect
       style="fill:#acacac;fill-opacity:1;stroke-width:0.191821"
       id="rect3003"
       width="10.932903"
       height="9.4420538"
       x="151.63658"
       y="65.663391"
       ry="1.9877998" />
    <rect
       style="fill:#acacac;fill-opacity:1;stroke-width:0.141774"
       id="rect3212"
       width="33.745056"
       height="23.108185"
       x="151.36526"
       y="67.866066"
       ry="4.6216364" />
    <rect
       style="fill:#b9b9b9;fill-opacity:1;stroke-width:0.141774"
       id="rect1907"
       width="33.745056"
       height="23.108185"
       x="151.36526"
       y="69.695404"
       ry="4.6216364" />
    <rect
       style="fill:#ffffff;fill-opacity:1;stroke-width:0.128089"
       id="rect8129"
       width="30.887234"
       height="20.607588"
       x="152.79417"
       y="71.124313"
       ry="4.1215177" />
    <circle
       style="fill:#b9b9b9;fill-opacity:1;stroke-width:0.152444"
       id="path3456"
       cx="164.20305"
       cy="79.944359"
       r="1.2423753" />
    <circle
       style="fill:#b9b9b9;fill-opacity:1;stroke-width:0.152444"
       id="circle3458"
       cx="173.51041"
       cy="79.944359"
       r="1.2423753" />
    <rect
       style="fill:#b9b9b9;fill-opacity:1;stroke-width:0.118315"
       id="rect4798"
       width="6.0728745"
       height="1.0716836"
       x="166.09315"
       y="84.051498"
       ry="0.53584182" />
    <circle
       style="fill:#b9b9b9;fill-opacity:1;stroke-width:0.154974"
       id="path6671"
       cx="145.84674"
       cy="64.136925"
       r="1.3396045" />
    <circle
       style="fill:#b9b9b9;fill-opacity:1;stroke-width:0.154974"
       id="circle10174"
       cx="183.11359"
       cy="48.732796"
       r="1.3396045" />
    <circle
       style="fill:#b9b9b9;fill-opacity:1;stroke-width:0.154974"
       id="circle10176"
       cx="160.84286"
       cy="51.038998"
       r="1.3396045" />
    <circle
       style="fill:#b9b9b9;fill-opacity:1;stroke-width:0.103316"
       id="circle10906"
       cx="163.58073"
       cy="38.726154"
       r="0.89306962" />
    <text
       xml:space="preserve"
       style="font-size:5.78332px;text-align:center;text-anchor:middle;fill:#b9b9b9;fill-opacity:1;stroke-width:0.120485"
       x="167.45531"
       y="61.330811"
       id="text10962"><tspan
         id="tspan10960"
         style="stroke-width:0.120485"
         x="167.45531"
         y="61.330811">+</tspan></text>
    <text
       xml:space="preserve"
       style="font-size:5.37934px;text-align:center;text-anchor:middle;fill:#b9b9b9;fill-opacity:1;stroke-width:0.11207"
       x="189.49442"
       y="66.27758"
       id="text10966"><tspan
         id="tspan10964"
         style="stroke-width:0.11207"
         x="189.49442"
         y="66.27758">+</tspan></text>
    <text
       xml:space="preserve"
       style="font-size:4.81078px;text-align:center;text-anchor:middle;fill:#b9b9b9;fill-opacity:1;stroke-width:0.100224"
       x="139.56657"
       y="-67.732445"
       id="text10970"
       transform="rotate(45.988856)"><tspan
         id="tspan10968"
         style="stroke-width:0.100224"
         x="139.56657"
         y="-67.732445">+</tspan></text>
    <text
       xml:space="preserve"
       style="font-size:4.81078px;text-align:center;text-anchor:middle;fill:#b9b9b9;fill-opacity:1;stroke-width:0.100224"
       x="167.98314"
       y="-87.694748"
       id="text13886"
       transform="rotate(45.988856)"><tspan
         id="tspan13884"
         style="stroke-width:0.100224"
         x="167.98314"
         y="-87.694748">+</tspan></text>
  </g>
</svg>
