<?xml version="1.0" encoding="UTF-8" standalone="no"?>
<svg
   xmlns:dc="http://purl.org/dc/elements/1.1/"
   xmlns:cc="http://creativecommons.org/ns#"
   xmlns:rdf="http://www.w3.org/1999/02/22-rdf-syntax-ns#"
   xmlns:svg="http://www.w3.org/2000/svg"
   xmlns="http://www.w3.org/2000/svg"
   id="svg8"
   version="1.1"
   viewBox="0 0 145.52082 35.983334"
   height="136"
   width="550">
  <defs
     id="defs2" />
  <metadata
     id="metadata5">
    <rdf:RDF>
      <cc:Work
         rdf:about="">
        <dc:format>image/svg+xml</dc:format>
        <dc:type
           rdf:resource="http://purl.org/dc/dcmitype/StillImage" />
        <dc:title></dc:title>
      </cc:Work>
    </rdf:RDF>
  </metadata>
  <g
     id="layer1">
    <g
       transform="matrix(0.9984754,0,0,0.9984754,-32.038613,-90.012846)"
       id="g874">
      <g
         id="g1041"
         transform="matrix(0.77603538,0,0,0.77603538,17.346126,17.941847)">
        <g
           transform="translate(-0.52915144)"
           id="g1035">
          <ellipse
             ry="7.1306586"
             rx="20.182217"
             cy="100.86148"
             cx="39.707161"
             id="ellipse1027"
             style="fill:#ffd8bf;fill-opacity:1;stroke-width:2.89376" />
          <path
             d="m 19.524948,101.11485 v 10.27735 0.41862 h 0.03489 a 20.182217,7.1306584 0 0 0 20.147399,6.71211 20.182217,7.1306584 0 0 0 20.14714,-6.71211 h 0.03497 v -0.41862 -10.27735 h -0.01292 a 20.182217,7.1306584 0 0 1 -20.169183,6.87741 20.182217,7.1306584 0 0 1 -20.169435,-6.87741 z"
             style="fill:#ffbb91;fill-opacity:1;stroke-width:2.89376"
             id="path1029" />
          <path
             id="path1031"
             style="fill:#ff8e6e;fill-opacity:1;stroke-width:2.89376"
             d="m 19.524948,111.38868 v 10.27735 0.41863 h 0.03489 a 20.182217,7.1306584 0 0 0 20.147399,6.7121 20.182217,7.1306584 0 0 0 20.147147,-6.7121 h 0.03497 v -0.41863 -10.27735 h -0.01292 a 20.182217,7.1306584 0 0 1 -20.169191,6.8774 20.182217,7.1306584 0 0 1 -20.169435,-6.8774 z" />
          <path
             d="m 19.524948,121.66252 v 10.27733 0.41862 h 0.03489 a 20.182217,7.1306584 0 0 0 20.147399,6.71211 20.182217,7.1306584 0 0 0 20.147147,-6.71211 h 0.03497 v -0.41862 -10.27733 h -0.01292 a 20.182217,7.1306584 0 0 1 -20.169191,6.87739 20.182217,7.1306584 0 0 1 -20.169435,-6.87739 z"
             style="fill:#605f9c;fill-opacity:1;stroke-width:2.89376"
             id="path1033" />
        </g>
        <g
           style="font-style:normal;font-weight:normal;font-size:24.3871px;line-height:1.25;font-family:sans-serif;fill:#000000;fill-opacity:1;stroke:none;stroke-width:0.609681"
           id="g1039"
           transform="matrix(0.99364446,0,0,1.0063962,-1.5875,0.52916667)"
           aria-label="/">
          <path
             id="path1037"
             style="font-style:normal;font-variant:normal;font-weight:bold;font-stretch:normal;font-family:sans-serif;-inkscape-font-specification:'sans-serif Bold';fill:#000000;stroke-width:0.609681"
             d="m 48.640626,110.40281 -9.442857,22.3866 h -5.785888 l 9.407133,-22.3866 z" />
        </g>
      </g>
      <text
         xml:space="preserve"
         style="font-style:normal;font-variant:normal;font-weight:normal;font-stretch:normal;font-size:24.445px;line-height:1.25;font-family:Helvetica;-inkscape-font-specification:Helvetica;letter-spacing:0px;fill:#000000;fill-opacity:1;stroke:none;stroke-width:0.611125"
         x="68.759079"
         y="118.43145"
         id="text1045"><tspan
           id="tspan1043"
           x="68.759079"
           y="118.43145"
           style="font-style:normal;font-variant:normal;font-weight:normal;font-stretch:normal;font-family:Helvetica;-inkscape-font-specification:Helvetica;stroke-width:0.611125">slashbase</tspan></text>
    </g>
  </g>
</svg>
