<?xml version="1.0" encoding="UTF-8" standalone="no"?>
<svg
   id="svg8"
   version="1.1"
   viewBox="0 0 66.145828 67.656342"
   height="255.709"
   width="250"
   xml:space="preserve"
   xmlns="http://www.w3.org/2000/svg"
   xmlns:svg="http://www.w3.org/2000/svg"
   xmlns:rdf="http://www.w3.org/1999/02/22-rdf-syntax-ns#"
   xmlns:cc="http://creativecommons.org/ns#"
   xmlns:dc="http://purl.org/dc/elements/1.1/"><g
     id="g329"
     transform="matrix(0.87789068,0,0,0.87789068,-113.6053,-27.379497)"><path
       id="path1125"
       style="fill:#ededed;fill-opacity:1;stroke-width:0.163409"
       d="m 204.75344,71.27096 a 30.78095,27.68516 0 0 0 -12.31632,-22.12766 30.78095,27.68516 0 0 0 -28.8029,-17.955479 30.78095,27.68516 0 0 0 -30.78103,27.685228 30.78095,27.68516 0 0 0 1.09742,7.253204 30.78095,27.68516 0 0 0 -4.54349,14.443138 30.78095,27.68516 0 0 0 30.78103,27.685239 30.78095,27.68516 0 0 0 24.62287,-11.071862 30.78095,27.68516 0 0 0 19.94242,-25.911808 z" /><path
       id="path355"
       style="fill:#e3e3e3;fill-opacity:1;stroke-width:0.142961"
       d="m 169.03366,39.878609 a 25.053632,26.034072 0 0 0 -20.02438,10.416957 25.053632,26.034072 0 0 0 -16.24878,24.361071 25.053632,26.034072 0 0 0 25.0537,26.034133 25.053632,26.034072 0 0 0 6.56377,-0.928181 25.053632,26.034072 0 0 0 13.07029,3.842821 25.053632,26.034072 0 0 0 25.0537,-26.034144 25.053632,26.034072 0 0 0 -10.01946,-20.825657 25.053632,26.034072 0 0 0 -23.44884,-16.867 z" /><circle
       style="fill:#b9b9b9;fill-opacity:1;stroke-width:0.154974"
       id="path6671"
       cx="143.72113"
       cy="49.588604"
       r="1.3396045" /><circle
       style="fill:#b9b9b9;fill-opacity:1;stroke-width:0.154974"
       id="circle10174"
       cx="178.80104"
       cy="47.007774"
       r="1.3396045" /><circle
       style="fill:#b9b9b9;fill-opacity:1;stroke-width:0.154974"
       id="circle10176"
       cx="169.06102"
       cy="56.601971"
       r="1.3396045" /><circle
       style="fill:#b9b9b9;fill-opacity:1;stroke-width:0.103316"
       id="circle10906"
       cx="163.58073"
       cy="38.726154"
       r="0.89306962" /><text
       xml:space="preserve"
       style="font-size:5.78332px;text-align:center;text-anchor:middle;fill:#b9b9b9;fill-opacity:1;stroke-width:0.120485"
       x="157.99307"
       y="50.222816"
       id="text10962"><tspan
         id="tspan10960"
         style="stroke-width:0.120485"
         x="157.99307"
         y="50.222816">+</tspan></text><text
       xml:space="preserve"
       style="font-size:5.37934px;text-align:center;text-anchor:middle;fill:#b9b9b9;fill-opacity:1;stroke-width:0.11207"
       x="185.18486"
       y="64.857506"
       id="text10966"><tspan
         id="tspan10964"
         style="stroke-width:0.11207"
         x="185.18486"
         y="64.857506">+</tspan></text><text
       xml:space="preserve"
       style="font-size:4.81078px;text-align:center;text-anchor:middle;fill:#b9b9b9;fill-opacity:1;stroke-width:0.100224"
       x="149.3989"
       y="-66.615074"
       id="text10970"
       transform="rotate(45.988856)"><tspan
         id="tspan10968"
         style="stroke-width:0.100224"
         x="149.3989"
         y="-66.615074">+</tspan></text><text
       xml:space="preserve"
       style="font-size:4.81078px;text-align:center;text-anchor:middle;fill:#b9b9b9;fill-opacity:1;stroke-width:0.100224"
       x="167.71559"
       y="-97.499466"
       id="text13886"
       transform="rotate(45.988856)"><tspan
         id="tspan13884"
         style="stroke-width:0.100224"
         x="167.71559"
         y="-97.499466">+</tspan></text><g
       id="g1007"
       transform="translate(-0.47684667,2.5434413)"><ellipse
         style="fill:#b9b9b9;fill-opacity:1;stroke-width:1.72553"
         id="ellipse848"
         cx="167.79494"
         cy="67.946381"
         rx="12.034454"
         ry="4.2519407" /><path
         id="path850"
         style="fill:#acacac;fill-opacity:1;stroke-width:1.72553"
         d="m 155.76047,68.097459 v 6.128283 0.249617 h 0.0209 a 12.034454,4.2519404 0 0 0 12.01368,4.002365 12.034454,4.2519404 0 0 0 12.01354,-4.002365 h 0.0208 v -0.249617 -6.128283 h -0.008 a 12.034454,4.2519404 0 0 1 -12.02667,4.100932 12.034454,4.2519404 0 0 1 -12.02683,-4.100932 z" /><path
         d="m 155.76047,74.223641 v 6.128282 0.249625 h 0.0209 a 12.034454,4.2519404 0 0 0 12.01368,4.002358 12.034454,4.2519404 0 0 0 12.01355,-4.002358 h 0.0208 v -0.249625 -6.128282 h -0.008 a 12.034454,4.2519404 0 0 1 -12.02653,4.100925 12.034454,4.2519404 0 0 1 -12.02683,-4.100925 z"
         style="fill:#b9b9b9;fill-opacity:1;stroke-width:1.72553"
         id="path852" /><path
         id="path854"
         style="fill:#acacac;fill-opacity:1;stroke-width:1.72553"
         d="m 155.76047,80.34983 v 6.128268 0.24962 h 0.0209 a 12.034454,4.2519404 0 0 0 12.01368,4.002364 12.034454,4.2519404 0 0 0 12.01355,-4.002364 h 0.0208 v -0.24962 -6.128268 h -0.008 a 12.034454,4.2519404 0 0 1 -12.02653,4.100919 12.034454,4.2519404 0 0 1 -12.02683,-4.100919 z" /></g></g><defs
     id="defs2" /><metadata
     id="metadata5"><rdf:RDF><cc:Work
         rdf:about=""><dc:format>image/svg+xml</dc:format><dc:type
           rdf:resource="http://purl.org/dc/dcmitype/StillImage" /></cc:Work></rdf:RDF></metadata></svg>
