<?xml version="1.0" encoding="UTF-8" standalone="no"?>
<svg
   xmlns:dc="http://purl.org/dc/elements/1.1/"
   xmlns:cc="http://creativecommons.org/ns#"
   xmlns:rdf="http://www.w3.org/1999/02/22-rdf-syntax-ns#"
   xmlns:svg="http://www.w3.org/2000/svg"
   xmlns="http://www.w3.org/2000/svg"
   width="150.99968"
   height="169.61386"
   viewBox="0 0 39.952 44.876999"
   version="1.1"
   id="svg8">
  <defs
     id="defs2" />
  <metadata
     id="metadata5">
    <rdf:RDF>
      <cc:Work
         rdf:about="">
        <dc:format>image/svg+xml</dc:format>
        <dc:type
           rdf:resource="http://purl.org/dc/dcmitype/StillImage" />
        <dc:title></dc:title>
      </cc:Work>
    </rdf:RDF>
  </metadata>
  <g
     transform="translate(-0.58638092,-0.435535)"
     id="layer1">
    <g
       transform="matrix(0.98978432,0,0,0.98978432,-18.215357,-92.337763)"
       id="g862">
      <g
         id="g856"
         transform="translate(-0.52915144)">
        <ellipse
           style="fill:#ffd8bf;fill-opacity:1;stroke-width:2.89376"
           id="ellipse848"
           cx="39.707161"
           cy="100.86148"
           rx="20.182217"
           ry="7.1306586" />
        <path
           id="path850"
           style="fill:#ffbb91;fill-opacity:1;stroke-width:2.89376"
           d="m 19.524948,101.11485 v 10.27735 0.41862 h 0.03489 a 20.182217,7.1306584 0 0 0 20.147399,6.71211 20.182217,7.1306584 0 0 0 20.14714,-6.71211 h 0.03497 v -0.41862 -10.27735 h -0.01292 a 20.182217,7.1306584 0 0 1 -20.169183,6.87741 20.182217,7.1306584 0 0 1 -20.169435,-6.87741 z" />
        <path
           d="m 19.524948,111.38868 v 10.27735 0.41863 h 0.03489 a 20.182217,7.1306584 0 0 0 20.147399,6.7121 20.182217,7.1306584 0 0 0 20.147147,-6.7121 h 0.03497 v -0.41863 -10.27735 h -0.01292 a 20.182217,7.1306584 0 0 1 -20.169191,6.8774 20.182217,7.1306584 0 0 1 -20.169435,-6.8774 z"
           style="fill:#ff8e6e;fill-opacity:1;stroke-width:2.89376"
           id="path852" />
        <path
           id="path854"
           style="fill:#605f9c;fill-opacity:1;stroke-width:2.89376"
           d="m 19.524948,121.66252 v 10.27733 0.41862 h 0.03489 a 20.182217,7.1306584 0 0 0 20.147399,6.71211 20.182217,7.1306584 0 0 0 20.147147,-6.71211 h 0.03497 v -0.41862 -10.27733 h -0.01292 a 20.182217,7.1306584 0 0 1 -20.169191,6.87739 20.182217,7.1306584 0 0 1 -20.169435,-6.87739 z" />
      </g>
      <g
         aria-label="/"
         transform="matrix(0.99364446,0,0,1.0063962,-1.5875,0.52916667)"
         id="g860"
         style="font-style:normal;font-weight:normal;font-size:24.3871px;line-height:1.25;font-family:sans-serif;fill:#000000;fill-opacity:1;stroke:none;stroke-width:0.609681">
        <path
           d="m 48.640626,110.40281 -9.442857,22.3866 h -5.785888 l 9.407133,-22.3866 z"
           style="font-style:normal;font-variant:normal;font-weight:bold;font-stretch:normal;font-family:sans-serif;-inkscape-font-specification:'sans-serif Bold';fill:#000000;stroke-width:0.609681"
           id="path858" />
      </g>
    </g>
  </g>
</svg>
